<svg xmlns="http://www.w3.org/2000/svg" viewBox="0 0 800 450" font-family="system-ui,-apple-system,sans-serif">
  <defs>
  <radialGradient id="ga" cx="15%" cy="25%" r="60%">
    <stop offset="0%" stop-color="#f97316" stop-opacity="0.13"/>
    <stop offset="100%" stop-color="#f97316" stop-opacity="0"/>
  </radialGradient>
  <radialGradient id="gb" cx="85%" cy="80%" r="55%">
    <stop offset="0%" stop-color="#a78bfa" stop-opacity="0.10"/>
    <stop offset="100%" stop-color="#a78bfa" stop-opacity="0"/>
  </radialGradient>
  <filter id="sh" x="-5%" y="-5%" width="110%" height="110%">
    <feDropShadow dx="0" dy="2" stdDeviation="6" flood-color="#000" flood-opacity="0.55"/>
  </filter>
  <clipPath id="av"><circle cx="16" cy="16" r="16"/></clipPath>
  <clipPath id="av2"><circle cx="14" cy="14" r="14"/></clipPath>
  <clipPath id="srv"><rect width="28" height="28" rx="8"/></clipPath>
</defs>
  <rect width="800" height="450" fill="#1e1f22"/>
<rect width="800" height="450" fill="url(#ga)"/>
<rect width="800" height="450" fill="url(#gb)"/>
  <rect x="0" y="0" width="158" height="450" fill="#2b2d31"/>
<rect x="0" y="0" width="158" height="46" fill="#232428"/>
<g transform="translate(10,9)"><clipPath id="srv_cp"><rect width="28" height="28" rx="8"/></clipPath>
<image href="/images/chopsticks.png" x="0" y="0" width="28" height="28" clip-path="url(#srv_cp)"/></g>
<text x="46" y="28" font-size="12" font-weight="700" fill="#ffffff" font-family="system-ui,sans-serif">Example Server</text>
<line x1="0" y1="46" x2="158" y2="46" stroke="#1e1f22" stroke-width="1"/>
<text x="12" y="68" font-size="9" font-weight="700" fill="#8d8f92" font-family="system-ui,sans-serif" letter-spacing="0.07em">TEXT CHANNELS</text>
<text x="14" y="82" font-size="12" fill="#8d8f92" font-family="system-ui,sans-serif"># general</text>
<rect x="4" y="93" width="150" height="22" fill="#404249" rx="4"/>
<text x="14" y="106" font-size="12" fill="#dbdee1" font-family="system-ui,sans-serif"># bot-commands</text>
<text x="14" y="130" font-size="12" fill="#8d8f92" font-family="system-ui,sans-serif"># showcase</text>
<text x="14" y="154" font-size="12" fill="#8d8f92" font-family="system-ui,sans-serif"># mod-log</text>
<rect x="158" y="0" width="642" height="46" fill="#313338"/>
<line x1="158" y1="46" x2="800" y2="46" stroke="#1e1f22" stroke-width="1"/>
<text x="172" y="20" font-size="11" fill="#72767d" font-family="system-ui,sans-serif">#</text>
<text x="182" y="20" font-size="13" font-weight="600" fill="#ffffff" font-family="system-ui,sans-serif">bot-commands</text>
<text x="172" y="37" font-size="11" fill="#72767d" font-family="system-ui,sans-serif">Chopsticks bot commands &amp; status</text>
<g transform="translate(170,66)"><image href="/images/chopsticks.png" x="0" y="0" width="32" height="32" clip-path="url(#av)"/></g>
<text x="210" y="78" font-size="13" font-weight="700" fill="#ffffff" font-family="system-ui,sans-serif">Chopsticks</text>
<rect x="286" y="69" width="26" height="12" fill="#5865f2" rx="3"/>
<text x="299" y="79" text-anchor="middle" font-size="9" font-weight="700" fill="#fff" font-family="system-ui,sans-serif">BOT</text>
<text x="318" y="78" font-size="11" fill="#72767d" font-family="system-ui,sans-serif">Today at 3:42 PM</text>
<text x="210" y="94" font-size="12" fill="#dbdee1" font-family="system-ui,sans-serif">/theme color #f97316  ↳  Updating embed accent color…</text>
<rect x="172" y="112" width="614" height="124" fill="#2b2d31" rx="4" filter="url(#sh)"/>
<rect x="172" y="112" width="4" height="124" fill="#f97316" rx="2"/>
<text x="186" y="132" font-size="13" font-weight="700" fill="#ffffff" font-family="system-ui,sans-serif">🎨  Theme Updated — Example Server</text>
<text x="186" y="152" font-size="10" font-weight="700" fill="#b5bac1" font-family="system-ui,sans-serif" letter-spacing="0.03em">ACCENT COLOR</text>
<rect x="186" y="160" width="16" height="16" fill="#f97316" rx="3"/>
<text x="208" y="173" font-size="12" fill="#dbdee1" font-family="system-ui,sans-serif">#f97316  (Orange) — applies to all embeds in this server</text>
<text x="186" y="194" font-size="10" font-weight="700" fill="#b5bac1" font-family="system-ui,sans-serif" letter-spacing="0.03em">BOT PERSONA NAME</text>
<text x="186" y="208" font-size="12" fill="#dbdee1" font-family="system-ui,sans-serif">Chopsticks  (custom: none set — run /theme name to change)</text>
<text x="186" y="224" font-size="10" fill="#72767d" font-family="system-ui,sans-serif">Changes apply to this server only  ·  /theme reset to restore defaults</text>
<text x="172" y="254" font-size="10" font-weight="700" fill="#8d8f92" font-family="system-ui,sans-serif" letter-spacing="0.06em">PRESET COLORS</text>
<rect x="186" y="242" width="60" height="34" fill="#5865f2" rx="6"/>
<text x="216" y="264" text-anchor="middle" font-size="9" fill="#fff" font-family="system-ui,sans-serif">Blurple</text>
<rect x="254" y="242" width="60" height="34" fill="#57f287" rx="6"/>
<text x="284" y="264" text-anchor="middle" font-size="9" fill="#fff" font-family="system-ui,sans-serif">Green</text>
<rect x="322" y="242" width="60" height="34" fill="#f97316" rx="6" stroke="#fff" stroke-width="2"/>
<text x="352" y="264" text-anchor="middle" font-size="9" fill="#fff" font-family="system-ui,sans-serif">Orange</text>
<text x="352" y="274" text-anchor="middle" font-size="8" fill="rgba(255,255,255,0.8)" font-family="system-ui,sans-serif">active</text>
<rect x="390" y="242" width="60" height="34" fill="#f472b6" rx="6"/>
<text x="420" y="264" text-anchor="middle" font-size="9" fill="#fff" font-family="system-ui,sans-serif">Pink</text>
<rect x="458" y="242" width="60" height="34" fill="#a78bfa" rx="6"/>
<text x="488" y="264" text-anchor="middle" font-size="9" fill="#fff" font-family="system-ui,sans-serif">Violet</text>
<rect x="526" y="242" width="60" height="34" fill="#22d3ee" rx="6"/>
<text x="556" y="264" text-anchor="middle" font-size="9" fill="#fff" font-family="system-ui,sans-serif">Cyan</text>
<rect x="594" y="242" width="60" height="34" fill="#faa61a" rx="6"/>
<text x="624" y="264" text-anchor="middle" font-size="9" fill="#fff" font-family="system-ui,sans-serif">Gold</text>
<rect x="662" y="242" width="60" height="34" fill="#ed4245" rx="6"/>
<text x="692" y="264" text-anchor="middle" font-size="9" fill="#fff" font-family="system-ui,sans-serif">Red</text>
<rect x="172" y="322" width="614" height="66" fill="#232428" rx="4"/>
<text x="186" y="338" font-size="10" font-weight="700" fill="#8d8f92" font-family="system-ui,sans-serif" letter-spacing="0.06em">MODULE TOGGLES</text>
<rect x="186" y="350" width="88" height="24" fill="#383a40" rx="4"/>
<text x="230" y="366" text-anchor="middle" font-size="11" fill="#57f287" font-family="system-ui,sans-serif">✓  Music</text>
<rect x="282" y="350" width="88" height="24" fill="#383a40" rx="4"/>
<text x="326" y="366" text-anchor="middle" font-size="11" fill="#57f287" font-family="system-ui,sans-serif">✓  Economy</text>
<rect x="378" y="350" width="88" height="24" fill="#383a40" rx="4"/>
<text x="422" y="366" text-anchor="middle" font-size="11" fill="#57f287" font-family="system-ui,sans-serif">✓  Games</text>
<rect x="474" y="350" width="88" height="24" fill="#383a40" rx="4"/>
<text x="518" y="366" text-anchor="middle" font-size="11" fill="#57f287" font-family="system-ui,sans-serif">✓  AI</text>
<rect x="570" y="350" width="88" height="24" fill="#383a40" rx="4"/>
<text x="614" y="366" text-anchor="middle" font-size="11" fill="#ed4245" font-family="system-ui,sans-serif">✗  Levels</text>
<rect x="666" y="350" width="88" height="24" fill="#383a40" rx="4"/>
<text x="710" y="366" text-anchor="middle" font-size="11" fill="#57f287" font-family="system-ui,sans-serif">✓  Agents</text>
<rect x="170" y="408" width="618" height="32" fill="#383a40" rx="8"/>
<text x="184" y="429" font-size="12" fill="#8d8f92" font-family="system-ui,sans-serif">Message #bot-commands</text>
</svg>