<svg xmlns="http://www.w3.org/2000/svg" viewBox="0 0 800 450" font-family="system-ui,-apple-system,sans-serif">
  <defs>
  <radialGradient id="ga" cx="15%" cy="25%" r="60%">
    <stop offset="0%" stop-color="#57f287" stop-opacity="0.13"/>
    <stop offset="100%" stop-color="#57f287" stop-opacity="0"/>
  </radialGradient>
  <radialGradient id="gb" cx="85%" cy="80%" r="55%">
    <stop offset="0%" stop-color="#5865f2" stop-opacity="0.10"/>
    <stop offset="100%" stop-color="#5865f2" stop-opacity="0"/>
  </radialGradient>
  <filter id="sh" x="-5%" y="-5%" width="110%" height="110%">
    <feDropShadow dx="0" dy="2" stdDeviation="6" flood-color="#000" flood-opacity="0.55"/>
  </filter>
  <clipPath id="av"><circle cx="16" cy="16" r="16"/></clipPath>
  <clipPath id="av2"><circle cx="14" cy="14" r="14"/></clipPath>
  <clipPath id="srv"><rect width="28" height="28" rx="8"/></clipPath>
</defs>
  <rect width="800" height="450" fill="#1e1f22"/>
<rect width="800" height="450" fill="url(#ga)"/>
<rect width="800" height="450" fill="url(#gb)"/>
  <rect x="0" y="0" width="158" height="450" fill="#2b2d31"/>
<rect x="0" y="0" width="158" height="46" fill="#232428"/>
<g transform="translate(10,9)"><clipPath id="srv_cp"><rect width="28" height="28" rx="8"/></clipPath>
<image href="/images/chopsticks.png" x="0" y="0" width="28" height="28" clip-path="url(#srv_cp)"/></g>
<text x="46" y="28" font-size="12" font-weight="700" fill="#ffffff" font-family="system-ui,sans-serif">Example Server</text>
<line x1="0" y1="46" x2="158" y2="46" stroke="#1e1f22" stroke-width="1"/>
<text x="12" y="68" font-size="9" font-weight="700" fill="#8d8f92" font-family="system-ui,sans-serif" letter-spacing="0.07em">TEXT CHANNELS</text>
<text x="14" y="82" font-size="12" fill="#8d8f92" font-family="system-ui,sans-serif"># welcome</text>
<text x="14" y="106" font-size="12" fill="#8d8f92" font-family="system-ui,sans-serif"># general</text>
<rect x="4" y="117" width="150" height="22" fill="#404249" rx="4"/>
<text x="14" y="130" font-size="12" fill="#dbdee1" font-family="system-ui,sans-serif"># bot-commands</text>
<text x="14" y="154" font-size="12" fill="#8d8f92" font-family="system-ui,sans-serif"># mod-log</text>
<rect x="158" y="0" width="642" height="46" fill="#313338"/>
<line x1="158" y1="46" x2="800" y2="46" stroke="#1e1f22" stroke-width="1"/>
<text x="172" y="20" font-size="11" fill="#72767d" font-family="system-ui,sans-serif">#</text>
<text x="182" y="20" font-size="13" font-weight="600" fill="#ffffff" font-family="system-ui,sans-serif">bot-commands</text>
<text x="172" y="37" font-size="11" fill="#72767d" font-family="system-ui,sans-serif">Chopsticks bot commands &amp; status</text>
<g transform="translate(170,66)"><image href="/images/chopsticks.png" x="0" y="0" width="32" height="32" clip-path="url(#av)"/></g>
<text x="210" y="78" font-size="13" font-weight="700" fill="#ffffff" font-family="system-ui,sans-serif">Chopsticks</text>
<rect x="286" y="69" width="26" height="12" fill="#5865f2" rx="3"/>
<text x="299" y="79" text-anchor="middle" font-size="9" font-weight="700" fill="#fff" font-family="system-ui,sans-serif">BOT</text>
<text x="318" y="78" font-size="11" fill="#72767d" font-family="system-ui,sans-serif">Today at 3:42 PM</text>
<text x="210" y="94" font-size="12" fill="#dbdee1" font-family="system-ui,sans-serif">/setup  ↳  Initialising your server…</text>
<rect x="172" y="112" width="614" height="160" fill="#2b2d31" rx="4" filter="url(#sh)"/>
<rect x="172" y="112" width="4" height="160" fill="#57f287" rx="2"/>
<text x="186" y="132" font-size="13" font-weight="700" fill="#ffffff" font-family="system-ui,sans-serif">✅  Server Initialized</text>
<text x="186" y="148" font-size="10" font-weight="700" fill="#b5bac1" font-family="system-ui,sans-serif" letter-spacing="0.03em">PREFIX</text>
<text x="186" y="162" font-size="12" fill="#dbdee1" font-family="system-ui,sans-serif">!  (change with /prefix or !prefix)</text>
<text x="186" y="180" font-size="10" font-weight="700" fill="#b5bac1" font-family="system-ui,sans-serif" letter-spacing="0.03em">MOD LOG CHANNEL</text>
<text x="186" y="194" font-size="12" fill="#dbdee1" font-family="system-ui,sans-serif">#mod-log  — moderation events logged here</text>
<text x="186" y="212" font-size="10" font-weight="700" fill="#b5bac1" font-family="system-ui,sans-serif" letter-spacing="0.03em">MODULES ENABLED</text>
<text x="186" y="226" font-size="12" fill="#dbdee1" font-family="system-ui,sans-serif">Moderation · Economy · Levels · Voice · AI</text>
<text x="186" y="244" font-size="10" font-weight="700" fill="#b5bac1" font-family="system-ui,sans-serif" letter-spacing="0.03em">NEXT STEP</text>
<text x="186" y="258" font-size="12" fill="#dbdee1" font-family="system-ui,sans-serif">Run !help to see all 148+ prefix commands</text>
<line x1="186" y1="280" x2="772" y2="280" stroke="#3a3c40" stroke-width="1"/>
<text x="186" y="294" font-size="10" fill="#72767d" font-family="system-ui,sans-serif">Tip: run /dashboard to open the web admin panel</text>
<rect x="170" y="408" width="618" height="32" fill="#383a40" rx="8"/>
<text x="184" y="429" font-size="12" fill="#8d8f92" font-family="system-ui,sans-serif">Message #bot-commands</text>
</svg>